<?xml version="1.0" encoding="iso-8859-1"?>
<!-- Generator: Adobe Illustrator 19.0.0, SVG Export Plug-In . SVG Version: 6.00 Build 0)  -->
<svg version="1.1" id="Layer_1" xmlns="http://www.w3.org/2000/svg" xmlns:xlink="http://www.w3.org/1999/xlink" x="0px" y="0px"
	 viewBox="0 0 513.41 513.41" style="enable-background:new 0 0 513.41 513.41;" xml:space="preserve">
<g>
	
		<ellipse transform="matrix(-0.2317 -0.9728 0.9728 -0.2317 84.3348 412.1106)" style="fill:#FFD15C;" cx="204.909" cy="172.752" rx="14.934" ry="8.533"/>
	
		<ellipse transform="matrix(-0.2317 0.9728 -0.9728 -0.2317 546.687 -85.1894)" style="fill:#FFD15C;" cx="306.985" cy="173.291" rx="14.934" ry="8.533"/>
</g>
<path style="fill:#FF7058;" d="M368.171,239.915l-56.533-4.267l-55.467-12.8l-55.467,12.8l-56.533,4.267l-6.4,38.4
	c0,0-2.133,29.867,13.867,48c0,0,17.067,46.933,28.8,54.4c0,0,6.4,16,4.267,38.4h71.467h70.4c-2.133-22.4,4.267-38.4,4.267-38.4
	c11.733-7.467,28.8-54.4,28.8-54.4c16-18.133,13.867-48,13.867-48L368.171,239.915z"/>
<path style="fill:#FFD15C;" d="M212.438,230.315c-13.867,2.133-19.2-7.467-19.2-7.467c-25.6-25.6-61.867-7.467-61.867-7.467
	c-32-32-66.133-3.2-66.133-3.2c4.267-3.2,9.6-24.533,9.6-24.533c7.467-25.6,22.4-48,22.4-48c4.267-10.667,16-7.467,16-7.467
	c5.333,5.333,11.733,6.4,11.733,6.4c11.733,5.333,13.867,2.133,13.867,2.133c1.067,7.467,5.333,5.333,5.333,5.333
	c9.6-3.2,4.267-10.667,4.267-10.667c-3.2-4.267,3.2-5.333,3.2-5.333c5.333-1.067,4.267-4.267,4.267-4.267l-7.467-28.8
	c-10.667-4.267-39.467,3.2-39.467,3.2c-23.467,1.067-36.267,26.667-36.267,26.667s-76.8,73.6-72.533,100.267
	c4.267,26.667,41.6,35.2,41.6,35.2c14.933,10.667,32,16,32,16c33.067,7.467,64-1.067,64-1.067c-3.2,20.267,7.467,39.467,13.867,48
	C166.571,319.915,213.505,291.115,212.438,230.315z"/>
<g>
	<path style="fill:#F8B64C;" d="M137.771,226.048c0,0,1.067,0,3.2,2.133s4.267,4.267,6.4,8.533s3.2,9.6,4.267,14.933
		c1.067,5.333,1.067,11.733,2.133,17.067c2.133,10.667,6.4,21.333,11.733,27.733c2.133,3.2,5.333,5.333,7.467,7.467
		c2.133,1.067,3.2,2.133,3.2,2.133s-1.067,0-4.267-1.067c-2.133-1.067-6.4-3.2-9.6-5.333c-3.2-3.2-6.4-7.467-9.6-11.733
		c-3.2-5.333-4.267-10.667-5.333-17.067s-1.067-11.733-1.067-17.067c0-5.333-1.067-9.6-2.133-13.867
		c-1.067-4.267-2.133-7.467-4.267-9.6C138.838,227.115,137.771,226.048,137.771,226.048z"/>
	<path style="fill:#F8B64C;" d="M65.238,244.182c0,0,4.267,1.067,10.667,3.2c6.4,2.133,14.933,4.267,23.467,5.333
		c2.133,0,4.267,0,6.4,0c2.133,0,4.267,0,6.4,0c2.133,0,4.267,0,5.333-1.067c2.133,0,3.2,0,5.333-1.067
		c1.067-1.067,3.2-1.067,4.267-1.067c1.067,0,2.133-1.067,3.2-1.067c2.133-1.067,3.2-1.067,3.2-1.067s-1.067,1.067-2.133,2.133
		c-1.067,1.067-4.267,3.2-7.467,4.267c-1.067,1.067-3.2,1.067-5.333,2.133c-2.133,1.067-4.267,1.067-6.4,1.067
		c-4.267,1.067-9.6,1.067-13.867,0c-4.267,1.067-8.533,0-12.8-1.067c-4.267-1.067-7.467-3.2-10.667-5.333
		C68.438,247.382,65.238,244.182,65.238,244.182z"/>
	<path style="fill:#F8B64C;" d="M52.438,214.315c0,0,0-1.067-1.067-3.2c-1.067-2.133-1.067-4.267-2.133-7.467
		c0-3.2-1.067-7.467,0-11.733c0-4.267,2.133-8.533,3.2-12.8c2.133-4.267,4.267-8.533,6.4-11.733c2.133-3.2,5.333-6.4,7.467-8.533
		c5.333-4.267,9.6-5.333,9.6-5.333s-1.067,1.067-2.133,2.133c-1.067,1.067-3.2,3.2-5.333,6.4c-4.267,5.333-8.533,11.733-11.733,19.2
		c-1.067,4.267-3.2,7.467-4.267,11.733s-1.067,7.467-2.133,10.667c0,3.2,0,5.333,0,7.467
		C52.438,213.248,52.438,214.315,52.438,214.315z"/>
</g>
<path style="opacity:0.1;fill:#231F20;enable-background:new    ;" d="M212.438,230.315c-13.867,2.133-19.2-7.467-19.2-7.467
	c-25.6-25.6-61.867-7.467-61.867-7.467c-32-32-66.133-3.2-66.133-3.2c4.267-3.2,9.6-24.533,9.6-24.533c7.467-25.6,22.4-48,22.4-48
	c0-1.067,1.067-2.133,2.133-3.2c-3.2,1.067-5.333,3.2-7.467,7.467c0,0-14.933,22.4-22.4,48c0,0-5.333,20.267-8.533,24.533
	c0,0,34.133-29.867,66.133,3.2c0,0,36.267-18.133,61.867,7.467c0,0,5.333,9.6,19.2,7.467c1.067,42.667-22.4,69.333-41.6,84.267
	C184.705,304.982,213.505,277.248,212.438,230.315z"/>
<path style="fill:#FFD15C;" d="M299.905,230.315c13.867,2.133,19.2-7.467,19.2-7.467c25.6-25.6,61.867-7.467,61.867-7.467
	c32-32,66.133-3.2,66.133-3.2c-4.267-4.267-8.533-24.533-8.533-24.533c-7.467-25.6-22.4-48-22.4-48c-4.267-10.667-16-7.467-16-7.467
	c-5.333,5.333-11.733,6.4-11.733,6.4c-11.733,5.333-13.867,2.133-13.867,2.133c-1.067,7.467-5.333,5.333-5.333,5.333
	c-9.6-3.2-4.267-10.667-4.267-10.667c3.2-4.267-3.2-5.333-3.2-5.333c-5.333-1.067-4.267-4.267-4.267-4.267l7.467-28.8
	c10.667-4.267,39.467,3.2,39.467,3.2c23.467,1.067,36.267,26.667,36.267,26.667s76.8,73.6,72.533,100.267
	c-4.267,26.667-41.6,35.2-41.6,35.2c-14.933,10.667-32,16-32,16c-33.067,7.467-64-1.067-64-1.067c3.2,20.267-7.467,39.467-13.867,48
	C345.771,319.915,298.838,291.115,299.905,230.315z"/>
<g>
	<path style="fill:#F8B64C;" d="M374.571,226.048c0,0-1.067,0-3.2,2.133c-2.133,2.133-4.267,4.267-6.4,8.533
		c-2.133,4.267-3.2,9.6-4.267,14.933c-1.067,5.333-1.067,11.733-2.133,17.067c-2.133,10.667-6.4,21.333-11.733,27.733
		c-2.133,3.2-5.333,5.333-7.467,7.467c-2.133,1.067-3.2,2.133-3.2,2.133s1.067,0,4.267-1.067c2.133-1.067,6.4-3.2,9.6-5.333
		c3.2-3.2,6.4-7.467,9.6-11.733c3.2-5.333,4.267-10.667,5.333-17.067s1.067-11.733,1.067-17.067c0-5.333,1.067-9.6,2.133-13.867
		c1.067-4.267,2.133-7.467,4.267-9.6C373.505,227.115,374.571,226.048,374.571,226.048z"/>
	<path style="fill:#F8B64C;" d="M447.105,244.182c0,0-4.267,1.067-10.667,3.2c-6.4,2.133-14.933,4.267-23.467,5.333
		c-2.133,0-4.267,0-6.4,0c-2.133,0-4.267,0-6.4,0c-2.133,0-4.267,0-5.333-1.067c-2.133,0-3.2,0-5.333-1.067
		c-1.067-1.067-3.2-1.067-4.267-1.067c-1.067,0-2.133-1.067-3.2-1.067c-2.133-1.067-3.2-1.067-3.2-1.067s1.067,1.067,2.133,2.133
		c1.067,1.067,4.267,3.2,7.467,4.267c1.067,1.067,3.2,1.067,5.333,2.133c2.133,1.067,4.267,1.067,6.4,1.067
		c4.267,1.067,9.6,1.067,13.867,0c4.267-1.067,9.6-2.133,13.867-3.2c4.267-1.067,7.467-3.2,10.667-5.333
		C443.905,247.382,447.105,244.182,447.105,244.182z"/>
	<path style="fill:#F8B64C;" d="M459.905,214.315c0,0,0-1.067,1.067-3.2c1.067-2.133,1.067-4.267,2.133-7.467
		c0-3.2,1.067-7.467,0-11.733c0-4.267-2.133-8.533-3.2-12.8c-2.133-4.267-4.267-8.533-6.4-11.733c-2.133-3.2-5.333-6.4-7.467-8.533
		c-5.333-4.267-9.6-5.333-9.6-5.333s1.067,1.067,2.133,2.133c1.067,1.067,3.2,3.2,5.333,6.4c4.267,5.333,8.533,11.733,11.733,19.2
		c1.067,4.267,3.2,7.467,4.267,11.733c1.067,4.267,1.067,7.467,2.133,10.667c0,3.2,0,5.333,0,7.467
		C459.905,213.248,459.905,214.315,459.905,214.315z"/>
</g>
<path style="opacity:0.1;fill:#231F20;enable-background:new    ;" d="M299.905,230.315c13.867,2.133,19.2-7.467,19.2-7.467
	c25.6-25.6,61.867-7.467,61.867-7.467c32-32,66.133-3.2,66.133-3.2c-4.267-4.267-8.533-24.533-8.533-24.533
	c-7.467-25.6-22.4-48-22.4-48c0-1.067-1.067-2.133-2.133-3.2c3.2,1.067,5.333,3.2,7.467,7.467c0,0,14.933,22.4,22.4,48
	c0,0,5.333,20.267,8.533,24.533c0,0-34.133-29.867-66.133,3.2c0,0-36.267-18.133-61.867,7.467c0,0-5.333,9.6-19.2,7.467
	c-1.067,42.667,22.4,69.333,41.6,84.267C327.638,304.982,298.838,277.248,299.905,230.315z"/>
<path style="fill:#F8B64C;" d="M224.171,215.382c-7.467,6.4-12.8,12.8-17.067,20.267c35.2,21.333,60.8,21.333,96,0
	c-3.2-7.467-9.6-13.867-17.067-20.267C266.838,218.582,245.505,218.582,224.171,215.382z"/>
<path style="fill:#F2F2F2;" d="M299.905,234.582c-25.6,19.2-61.867,19.2-86.4,0c-1.067-1.067-2.133-2.133-2.133-3.2l0,0l0,0
	c-2.133,0-3.2,0-5.333,0l0,0v4.267l2.133,2.133c13.867,11.733,30.933,17.067,49.067,17.067s35.2-6.4,49.067-17.067l2.133-2.133
	v-5.333l0,0c-2.133,0-3.2,0-5.333,0l0,0l0,0C300.971,232.448,300.971,233.515,299.905,234.582z"/>
<path style="fill:#FFD15C;" d="M308.438,159.915c0,28.8-23.467,78.933-52.267,78.933s-52.267-50.133-52.267-78.933
	s23.467-52.267,52.267-52.267S308.438,130.048,308.438,159.915z"/>
<path style="fill:#40596B;" d="M270.038,96.982c-44.8-10.667-46.933,13.867-46.933,13.867s-39.467,10.667-14.933,75.733
	c0,0,0-18.133,4.267-23.467c0,0,6.4-11.733,3.2-21.333c0-1.067,0-3.2,1.067-5.333c4.267-8.533,12.8-13.867,22.4-14.933
	c0,0,0,0,1.067,0c5.333-1.067,13.867,0,18.133,8.533c4.267,7.467,11.733,12.8,18.133,16c11.733,5.333,21.333,14.933,25.6,27.733
	c1.067,5.333,2.133,7.467,3.2,11.733c6.4-4.267,13.867-33.067,7.467-48C305.238,117.248,290.305,101.248,270.038,96.982z"/>
<g>
</g>
<g>
</g>
<g>
</g>
<g>
</g>
<g>
</g>
<g>
</g>
<g>
</g>
<g>
</g>
<g>
</g>
<g>
</g>
<g>
</g>
<g>
</g>
<g>
</g>
<g>
</g>
<g>
</g>
</svg>
