<?xml version="1.0" encoding="iso-8859-1"?>
<!-- Generator: Adobe Illustrator 19.0.0, SVG Export Plug-In . SVG Version: 6.00 Build 0)  -->
<svg version="1.1" id="Layer_1" xmlns="http://www.w3.org/2000/svg" xmlns:xlink="http://www.w3.org/1999/xlink" x="0px" y="0px"
	 viewBox="0 0 514.133 514.133" style="enable-background:new 0 0 514.133 514.133;" xml:space="preserve">
<circle style="fill:#40596B;" cx="257.067" cy="294.4" r="219.733"/>
<path style="fill:#CDD6E0;" d="M437.333,133.333l-16,16c-8.533-9.6-18.133-18.133-27.733-26.667l17.067-17.067L437.333,133.333z"/>
<rect x="396.944" y="94.291" transform="matrix(0.7071 0.7071 -0.7071 0.7071 203.5839 -274.114)" style="fill:#ACB3BA;" width="71.466" height="28.8"/>
<path style="fill:#334A5E;" d="M257.067,75.733c11.733,0,24.533,1.067,36.267,3.2v-48h-71.467v46.933
	C232.533,76.8,245.333,75.733,257.067,75.733z"/>
<path style="fill:#F2F2F2;" d="M257.067,462.933c-92.8,0-168.533-75.733-168.533-168.533s75.733-167.467,168.533-167.467
	S425.6,202.667,425.6,295.467S349.867,462.933,257.067,462.933z"/>
<path style="fill:#40596B;" d="M315.733,55.467H198.4c-6.4,0-10.667-4.267-10.667-10.667V10.667C187.733,4.267,192,0,198.4,0
	h116.267c6.4,0,10.667,4.267,10.667,10.667V44.8C326.4,50.133,321.067,55.467,315.733,55.467z"/>
<g>
	<rect x="251.733" y="126.933" style="fill:#ACB3BA;" width="9.6" height="23.467"/>
	<rect x="251.733" y="439.467" style="fill:#ACB3BA;" width="9.6" height="23.467"/>
	<rect x="88.533" y="290.133" style="fill:#ACB3BA;" width="23.467" height="9.6"/>
	<rect x="401.067" y="290.133" style="fill:#ACB3BA;" width="23.467" height="9.6"/>
	
		<rect x="323.257" y="155.178" transform="matrix(-0.5012 0.8653 -0.8653 -0.5012 641.3235 -49.7133)" style="fill:#ACB3BA;" width="23.466" height="9.6"/>
	
		<rect x="166.894" y="425.988" transform="matrix(-0.5012 0.8653 -0.8653 -0.5012 640.9272 492.1342)" style="fill:#ACB3BA;" width="23.466" height="9.6"/>
	
		<rect x="109.987" y="212.38" transform="matrix(0.8653 0.5012 -0.5012 0.8653 125.2466 -31.7589)" style="fill:#ACB3BA;" width="23.466" height="9.6"/>
	
		<rect x="380.174" y="368.75" transform="matrix(0.8653 0.5012 -0.5012 0.8653 240.0087 -146.121)" style="fill:#ACB3BA;" width="23.466" height="9.6"/>
	
		<rect x="380.787" y="212.308" transform="matrix(-0.8672 0.4979 -0.4979 -0.8672 841.0241 209.9482)" style="fill:#ACB3BA;" width="23.466" height="9.6"/>
	
		<rect x="109.88" y="367.943" transform="matrix(-0.8672 0.4979 -0.4979 -0.8672 412.6724 635.4426)" style="fill:#ACB3BA;" width="23.466" height="9.6"/>
	
		<rect x="167.616" y="154.56" transform="matrix(0.4979 0.8672 -0.8672 0.4979 228.2492 -75.5243)" style="fill:#ACB3BA;" width="23.466" height="9.6"/>
	
		<rect x="323.089" y="425.666" transform="matrix(0.4979 0.8672 -0.8672 0.4979 541.42 -74.2356)" style="fill:#ACB3BA;" width="23.466" height="9.6"/>
</g>
<path style="opacity:0.1;fill:#231F20;enable-background:new    ;" d="M257.067,148.267c89.6,0,162.133,69.333,167.467,157.867
	c0-3.2,1.067-7.467,1.067-10.667c0-92.8-75.733-168.533-168.533-168.533S88.533,202.667,88.533,295.467c0,3.2,0,7.467,1.067,10.667
	C94.933,217.6,167.467,148.267,257.067,148.267z"/>
<path style="fill:#FF7058;" d="M262.4,294.4L262.4,294.4c0-6.4,5.333-11.733,11.733-11.733h96c6.4,0,11.733,5.333,11.733,11.733l0,0
	c0,6.4-5.333,11.733-11.733,11.733h-96C267.733,306.133,262.4,300.8,262.4,294.4z"/>
<path style="opacity:0.1;fill:#231F20;enable-background:new    ;" d="M262.4,294.4c0,6.4,5.333,11.733,11.733,11.733h21.333
	c1.067-3.2,2.133-7.467,2.133-11.733c0-4.267-1.067-7.467-2.133-11.733h-21.333C267.733,283.733,262.4,288,262.4,294.4z"/>
<circle style="fill:#FF7058;" cx="257.067" cy="294.4" r="28.8"/>
<circle style="fill:#FFFFFF;" cx="257.067" cy="294.4" r="16"/>
<g>
</g>
<g>
</g>
<g>
</g>
<g>
</g>
<g>
</g>
<g>
</g>
<g>
</g>
<g>
</g>
<g>
</g>
<g>
</g>
<g>
</g>
<g>
</g>
<g>
</g>
<g>
</g>
<g>
</g>
</svg>
