<?xml version="1.0" encoding="iso-8859-1"?>
<!-- Generator: Adobe Illustrator 19.0.0, SVG Export Plug-In . SVG Version: 6.00 Build 0)  -->
<svg version="1.1" id="Layer_1" xmlns="http://www.w3.org/2000/svg" xmlns:xlink="http://www.w3.org/1999/xlink" x="0px" y="0px"
	 viewBox="0 0 512 512" style="enable-background:new 0 0 512 512;" xml:space="preserve">
<rect x="64" y="231.467" style="fill:#CDD6E0;" width="384" height="62.933"/>
<rect x="64" y="231.467" style="fill:#ACB3BA;" width="384" height="32"/>
<g>
	<path style="fill:#CDD6E0;" d="M501.333,282.667L501.333,282.667c6.4,0,10.667-4.267,10.667-10.667v-19.2
		c0-6.4-4.267-10.667-10.667-10.667l0,0V282.667z"/>
	<path style="fill:#CDD6E0;" d="M10.667,242.133L10.667,242.133C4.267,242.133,0,246.4,0,252.8V272
		c0,6.4,4.267,10.667,10.667,10.667l0,0V242.133z"/>
</g>
<path style="fill:#40596B;" d="M435.2,174.933c-11.733,0-22.4,9.6-22.4,22.4v118.4c0,11.733,9.6,22.4,22.4,22.4l0,0V174.933
	L435.2,174.933z"/>
<g>
	<path style="fill:#334A5E;" d="M435.2,174.933L435.2,174.933v163.2l0,0c11.733,0,22.4-9.6,22.4-22.4V196.267
		C456.533,184.533,446.933,174.933,435.2,174.933z"/>
	<path style="fill:#334A5E;" d="M478.933,192L478.933,192v126.933l0,0c11.733,0,22.4-9.6,22.4-22.4v-83.2
		C501.333,202.667,491.733,192,478.933,192z"/>
</g>
<g>
	<path style="fill:#40596B;" d="M478.933,192c-11.733,0-22.4,9.6-22.4,22.4v83.2c0,11.733,9.6,22.4,22.4,22.4l0,0V192L478.933,192z"
		/>
	<path style="fill:#40596B;" d="M390.4,156.8c-11.733,0-22.4,9.6-22.4,22.4v153.6c0,11.733,9.6,22.4,22.4,22.4l0,0V156.8
		L390.4,156.8z"/>
</g>
<path style="fill:#334A5E;" d="M390.4,156.8L390.4,156.8v198.4l0,0c11.733,0,22.4-9.6,22.4-22.4V179.2
	C412.8,166.4,403.2,156.8,390.4,156.8z"/>
<path style="fill:#40596B;" d="M76.8,337.067c11.733,0,22.4-9.6,22.4-22.4v-118.4c0-11.733-9.6-22.4-22.4-22.4l0,0L76.8,337.067
	L76.8,337.067z"/>
<g>
	<path style="fill:#334A5E;" d="M76.8,337.067L76.8,337.067v-163.2l0,0c-11.733,0-22.4,9.6-22.4,22.4v118.4
		C55.467,327.467,65.067,337.067,76.8,337.067z"/>
	<path style="fill:#334A5E;" d="M33.067,320L33.067,320V193.067l0,0c-12.8-1.067-22.4,9.6-22.4,21.333v83.2
		C10.667,309.333,20.267,320,33.067,320z"/>
</g>
<g>
	<path style="fill:#40596B;" d="M33.067,320c11.733,0,22.4-9.6,22.4-22.4v-83.2c0-11.733-10.667-22.4-22.4-22.4l0,0V320L33.067,320z
		"/>
	<path style="fill:#40596B;" d="M121.6,355.2c11.733,0,22.4-9.6,22.4-22.4V179.2c0-11.733-9.6-22.4-22.4-22.4l0,0V355.2L121.6,355.2
		z"/>
</g>
<path style="fill:#334A5E;" d="M121.6,355.2L121.6,355.2V156.8l0,0c-11.733,0-22.4,9.6-22.4,22.4v153.6
	C99.2,345.6,108.8,355.2,121.6,355.2z"/>
<g>
</g>
<g>
</g>
<g>
</g>
<g>
</g>
<g>
</g>
<g>
</g>
<g>
</g>
<g>
</g>
<g>
</g>
<g>
</g>
<g>
</g>
<g>
</g>
<g>
</g>
<g>
</g>
<g>
</g>
</svg>
