<?xml version="1.0" encoding="iso-8859-1"?>
<!-- Generator: Adobe Illustrator 19.0.0, SVG Export Plug-In . SVG Version: 6.00 Build 0)  -->
<svg version="1.1" id="Layer_1" xmlns="http://www.w3.org/2000/svg" xmlns:xlink="http://www.w3.org/1999/xlink" x="0px" y="0px"
	 viewBox="0 0 512 512" style="enable-background:new 0 0 512 512;" xml:space="preserve">
<path style="fill:#FF7058;" d="M394.133,512H50.667c-11.733,0-21.333-9.6-21.333-21.333v-416c0-11.733,9.6-21.333,21.333-21.333
	h343.467c11.733,0,21.333,9.6,21.333,21.333v416C415.467,502.4,405.867,512,394.133,512z"/>
<rect x="61.333" y="85.333" style="fill:#F2F2F2;" width="322.133" height="394.667"/>
<path style="fill:#40596B;" d="M299.2,22.4h-44.8C249.067,9.6,237.333,0,222.4,0s-26.667,9.6-30.933,22.4h-44.8
	c-11.733,0-21.333,9.6-21.333,21.333v40.533c0,11.733,9.6,21.333,21.333,21.333H299.2c11.733,0,21.333-9.6,21.333-21.333V43.733
	C320.533,32,310.933,22.4,299.2,22.4z M222.4,44.8c-8.533,0-14.933-6.4-14.933-14.933s6.4-14.933,14.933-14.933
	s14.933,6.4,14.933,14.933S230.933,44.8,222.4,44.8z"/>
<rect x="82.667" y="126.933" style="fill:#84DBFF;" width="113.067" height="133.333"/>
<g>
	<rect x="222.4" y="166.4" style="fill:#CDD6E0;" width="139.733" height="17.067"/>
	<rect x="222.4" y="245.333" style="fill:#CDD6E0;" width="139.733" height="17.067"/>
	<rect x="82.667" y="323.2" style="fill:#CDD6E0;" width="279.467" height="17.067"/>
	<rect x="82.667" y="402.133" style="fill:#CDD6E0;" width="279.467" height="17.067"/>
</g>
<circle style="fill:#FFD15C;" cx="383.467" cy="412.8" r="99.2"/>
<polygon style="fill:#FFFFFF;" points="357.867,467.2 320.533,429.867 340.8,409.6 357.867,426.667 426.133,358.4 446.4,378.667 "/>
<g style="opacity:0.1;">
	<path style="fill:#231F20;" d="M284.267,412.8c0-55.467,44.8-99.2,99.2-99.2c11.733,0,22.4,2.133,32,5.333v-17.067
		c-10.667-3.2-21.333-4.267-32-4.267c-64,0-115.2,52.267-115.2,115.2c0,42.667,23.467,80,57.6,99.2h58.667
		C329.067,512,284.267,467.2,284.267,412.8z"/>
	<path style="fill:#231F20;" d="M383.467,512h10.667c3.2,0,6.4-1.067,8.533-2.133C397.333,512,389.867,512,383.467,512z"/>
</g>
<g>
</g>
<g>
</g>
<g>
</g>
<g>
</g>
<g>
</g>
<g>
</g>
<g>
</g>
<g>
</g>
<g>
</g>
<g>
</g>
<g>
</g>
<g>
</g>
<g>
</g>
<g>
</g>
<g>
</g>
</svg>
